<svg width="226" height="226" viewBox="0 0 226 226" fill="none" xmlns="http://www.w3.org/2000/svg">
  <path opacity="0.08"
        d="M177 113C177 148.346 148.346 177 113 177C77.6538 177 49 148.346 49 113C49 77.6538 77.6538 49 113 49C148.346 49 177 77.6538 177 113ZM71.9854 113C71.9854 135.652 90.3483 154.015 113 154.015C135.652 154.015 154.015 135.652 154.015 113C154.015 90.3483 135.652 71.9854 113 71.9854C90.3483 71.9854 71.9854 90.3483 71.9854 113Z"
        fill="#B5B2B7"/>
  <path opacity="0.08"
        d="M226 113C226 175.408 175.408 226 113 226C50.5918 226 0 175.408 0 113C0 50.5918 50.5918 0 113 0C175.408 0 226 50.5918 226 113ZM40.5836 113C40.5836 152.994 73.0055 185.416 113 185.416C152.994 185.416 185.416 152.994 185.416 113C185.416 73.0055 152.994 40.5836 113 40.5836C73.0055 40.5836 40.5836 73.0055 40.5836 113Z"
        fill="#B5B2B7"/>
</svg>
