<svg width="22" height="25" viewBox="0 0 22 25" fill="none" xmlns="http://www.w3.org/2000/svg">
  <path
    d="M7.3675 24.2575C6.5815 24.2149 5.84185 23.8722 5.30125 23.3C4.65449 22.6778 4.07735 21.9871 3.58 21.24C2.8031 20.1275 2.18899 18.9098 1.75625 17.6238C1.26651 16.2402 1.00887 14.7852 0.993753 13.3175C0.955706 11.8775 1.31233 10.4544 2.025 9.20253C2.54697 8.30015 3.29149 7.5466 4.1875 7.01378C5.07361 6.48323 6.08477 6.19766 7.1175 6.18628C7.89602 6.23234 8.66107 6.41028 9.38 6.71253C9.95375 6.96503 10.5563 7.14253 11.175 7.24003C11.8575 7.09705 12.5244 6.88772 13.1663 6.61503C13.9258 6.31845 14.7301 6.15236 15.545 6.12378C15.6538 6.12378 15.7613 6.12378 15.865 6.13628C17.6525 6.18753 19.315 7.06503 20.365 8.51128C19.5455 8.94957 18.8637 9.60652 18.3952 10.4091C17.9267 11.2117 17.6899 12.1285 17.7113 13.0575C17.7031 13.7679 17.8456 14.472 18.1293 15.1234C18.4131 15.7747 18.8317 16.3585 19.3575 16.8363C19.8363 17.2925 20.3938 17.6575 21.0025 17.915C20.8775 18.29 20.7338 18.6525 20.5813 19.0175C20.235 19.8241 19.8078 20.5935 19.3063 21.3138C18.832 22.0354 18.2799 22.7027 17.66 23.3038C17.0945 23.8649 16.3408 24.1959 15.545 24.2325C14.8704 24.2026 14.2078 24.0444 13.5925 23.7663C12.929 23.4772 12.216 23.3189 11.4925 23.3C10.7486 23.3147 10.0145 23.4721 9.33 23.7638C8.73881 24.0305 8.10719 24.1965 7.46125 24.255L7.3675 24.2575ZM11.305 6.12378C11.2113 6.12378 11.1175 6.12378 11.0238 6.11253C11.004 5.96374 10.9936 5.81387 10.9925 5.66378C11.0334 4.4152 11.5213 3.22282 12.3675 2.30378C12.8408 1.7756 13.4144 1.34686 14.055 1.04253C14.652 0.735222 15.3043 0.55035 15.9738 0.498779C15.9925 0.662529 15.9925 0.822529 15.9925 0.975029C15.9749 2.20399 15.5132 3.38506 14.6925 4.30003C14.2952 4.83281 13.786 5.27215 13.2008 5.58721C12.6156 5.90227 11.9685 6.08541 11.305 6.12378Z"
    fill="#F8F8F8"/>
</svg>
